<svg xmlns="http://www.w3.org/2000/svg" width="260" height="260" viewBox="0 0 260 260" fill="none" stroke="#52525b" stroke-width="1.6" stroke-linecap="round" stroke-linejoin="round">
  <!-- carrito -->
  <g transform="translate(18,20) rotate(-6)">
    <path d="M0 2h6l5 22h24l5-16H13"/>
    <circle cx="14" cy="30" r="3"/>
    <circle cx="32" cy="30" r="3"/>
  </g>
  <!-- grafico de ventas -->
  <g transform="translate(150,26) rotate(4)">
    <path d="M0 30V0"/>
    <path d="M0 30h38"/>
    <rect x="6" y="18" width="6" height="12" rx="1"/>
    <rect x="16" y="12" width="6" height="18" rx="1"/>
    <rect x="26" y="6" width="6" height="24" rx="1"/>
    <path d="M6 10l10-6 8 4 10-8"/>
    <path d="M30 0h4v4"/>
  </g>
  <!-- paquete -->
  <g transform="translate(80,90) rotate(-3)">
    <path d="M0 8l16-8 16 8v18l-16 8-16-8z"/>
    <path d="M0 8l16 8 16-8"/>
    <path d="M16 16v18"/>
    <path d="M8 4l16 8"/>
  </g>
  <!-- etiqueta de precio -->
  <g transform="translate(196,118) rotate(14)">
    <path d="M2 0h16l14 14-16 16L2 16z"/>
    <circle cx="10" cy="8" r="2.6"/>
  </g>
  <!-- camion de reparto -->
  <g transform="translate(16,170) rotate(3)">
    <rect x="0" y="0" width="26" height="18" rx="2"/>
    <path d="M26 6h9l7 7v5h-16z"/>
    <circle cx="9" cy="21" r="3.4"/>
    <circle cx="33" cy="21" r="3.4"/>
  </g>
  <!-- guarani -->
  <g transform="translate(126,180) rotate(-8)">
    <circle cx="14" cy="14" r="14"/>
    <text x="14" y="20" font-family="Arial, sans-serif" font-size="17" font-weight="bold" fill="#52525b" stroke="none" text-anchor="middle">₲</text>
  </g>
  <!-- codigo de barras -->
  <g transform="translate(196,206)">
    <path d="M0 0v18"/><path d="M5 0v18"/><path d="M9 0v12"/><path d="M14 0v18"/><path d="M18 0v12"/><path d="M23 0v18"/><path d="M28 0v18"/>
  </g>
  <!-- tiendita -->
  <g transform="translate(92,8) rotate(2)">
    <path d="M0 10l3-10h28l3 10"/>
    <path d="M0 10c0 3 2 5 5 5s5-2 5-5c0 3 2 5 5 5s5-2 5-5c0 3 2 5 5 5s6-2 6-5"/>
    <path d="M3 15v14h28V15"/>
    <path d="M12 29V20h10v9"/>
  </g>
</svg>
